<svg width="0" height="0" class="hidden">
    <symbol xmlns="http://www.w3.org/2000/svg" viewBox="0 0 16 16" id="offline">
        <path d="M8 1C4.1 1 1 4.1 1 8s3.1 7 7 7 7-3.1 7-7-3.1-7-7-7zm2.7 10.5L4.5 5.3l.8-.8 6.2 6.2-.8.8z" fill="red" fill-rule="evenodd"></path>
    </symbol>
    <symbol xmlns="http://www.w3.org/2000/svg" viewBox="0 0 16 16" id="available">
        <path d="M8 1C4.1 1 1 4.1 1 8s3.1 7 7 7 7-3.1 7-7-3.1-7-7-7zM7 11L4.3 8.3l.9-.8L7 9.3l4-3.9.9.8L7 11z" fill="#00AD09" fill-rule="evenodd"></path>
    </symbol>
    <symbol xmlns="http://www.w3.org/2000/svg" viewBox="0 0 32 32" id="arrow">
        <path d="M13 26l1.41-1.41L6.83 17H29v-2H6.83l7.58-7.59L13 6 3 16z" fill-rule="evenodd"></path>
    </symbol>
</svg>